<mxfile host="Electron" modified="2024-05-09T00:51:39.305Z" agent="Mozilla/5.0 (Windows NT 10.0; Win64; x64) AppleWebKit/537.36 (KHTML, like Gecko) draw.io/24.2.5 Chrome/120.0.6099.109 Electron/28.1.0 Safari/537.36" etag="bQsuMb3Z-nyc1lkrZR4q" version="24.2.5" type="device">
  <diagram name="use case" id="BRzJtXRulZJVfPnOQYk1">
    <mxGraphModel dx="713" dy="390" grid="1" gridSize="10" guides="1" tooltips="1" connect="1" arrows="1" fold="1" page="1" pageScale="1" pageWidth="827" pageHeight="1169" math="0" shadow="0">
      <root>
        <mxCell id="OxCkQ5Rw8pex38WkrfER-0" />
        <mxCell id="OxCkQ5Rw8pex38WkrfER-1" parent="OxCkQ5Rw8pex38WkrfER-0" />
        <mxCell id="OxCkQ5Rw8pex38WkrfER-2" value="3. Quản lý đơn nợ&amp;nbsp;" style="ellipse;whiteSpace=wrap;html=1;fillColor=#99CCFF;strokeColor=#000000;" parent="OxCkQ5Rw8pex38WkrfER-1" vertex="1">
          <mxGeometry x="204" y="420" width="120" height="60" as="geometry" />
        </mxCell>
        <mxCell id="OxCkQ5Rw8pex38WkrfER-4" value="2. Quản lý đơn hàng" style="ellipse;whiteSpace=wrap;html=1;fillColor=#99CCFF;fontColor=#000000;strokeColor=#000000;" parent="OxCkQ5Rw8pex38WkrfER-1" vertex="1">
          <mxGeometry x="210" y="310" width="120" height="60" as="geometry" />
        </mxCell>
        <mxCell id="OxCkQ5Rw8pex38WkrfER-5" value="1. Đăng nhập" style="ellipse;whiteSpace=wrap;html=1;fillColor=#99CCFF;strokeColor=#000000;" parent="OxCkQ5Rw8pex38WkrfER-1" vertex="1">
          <mxGeometry x="200" y="135" width="120" height="60" as="geometry" />
        </mxCell>
        <mxCell id="OxCkQ5Rw8pex38WkrfER-6" value="3.2 Sửa&amp;nbsp;&lt;div&gt;đơn nợ&lt;/div&gt;" style="ellipse;whiteSpace=wrap;html=1;fillColor=#dae8fc;strokeColor=#6c8ebf;" parent="OxCkQ5Rw8pex38WkrfER-1" vertex="1">
          <mxGeometry x="450" y="420" width="80" height="50" as="geometry" />
        </mxCell>
        <mxCell id="OxCkQ5Rw8pex38WkrfER-7" value="&amp;lt;&amp;lt;extend&amp;gt;&amp;gt;" style="html=1;verticalAlign=bottom;labelBackgroundColor=none;endArrow=open;endFill=0;dashed=1;rounded=0;exitX=0;exitY=0.6;exitDx=0;exitDy=0;exitPerimeter=0;entryX=0.666;entryY=0.036;entryDx=0;entryDy=0;entryPerimeter=0;" parent="OxCkQ5Rw8pex38WkrfER-1" source="OxCkQ5Rw8pex38WkrfER-37" target="OxCkQ5Rw8pex38WkrfER-2" edge="1">
          <mxGeometry x="0.015" y="8" width="160" relative="1" as="geometry">
            <mxPoint x="444.5" y="719" as="sourcePoint" />
            <mxPoint x="290" y="420" as="targetPoint" />
            <mxPoint as="offset" />
          </mxGeometry>
        </mxCell>
        <mxCell id="OxCkQ5Rw8pex38WkrfER-8" value="&amp;lt;&amp;lt;extend&amp;gt;&amp;gt;" style="html=1;verticalAlign=bottom;labelBackgroundColor=none;endArrow=open;endFill=0;dashed=1;rounded=0;" parent="OxCkQ5Rw8pex38WkrfER-1" source="OxCkQ5Rw8pex38WkrfER-9" edge="1">
          <mxGeometry width="160" relative="1" as="geometry">
            <mxPoint x="544.8222772492263" y="775.2738989230804" as="sourcePoint" />
            <mxPoint x="320" y="450" as="targetPoint" />
          </mxGeometry>
        </mxCell>
        <mxCell id="OxCkQ5Rw8pex38WkrfER-9" value="3.3 Xoá &lt;br&gt;đơn nợ" style="ellipse;whiteSpace=wrap;html=1;fillColor=#dae8fc;strokeColor=#6c8ebf;" parent="OxCkQ5Rw8pex38WkrfER-1" vertex="1">
          <mxGeometry x="400" y="485" width="80" height="50" as="geometry" />
        </mxCell>
        <object placeholders="1" c4Name="HỆ THỐNG QUẢN LÝ BÁN HÀNG" c4Type="SystemScopeBoundary" c4Application="48K212.03" label="&lt;font style=&quot;font-size: 16px&quot;&gt;&lt;b&gt;&lt;div style=&quot;text-align: left&quot;&gt;%c4Name%&lt;/div&gt;&lt;/b&gt;&lt;/font&gt;&lt;div style=&quot;text-align: left&quot;&gt;[%c4Application%]&lt;/div&gt;" id="OxCkQ5Rw8pex38WkrfER-10">
          <mxCell style="rounded=1;fontSize=11;whiteSpace=wrap;html=1;dashed=1;arcSize=20;fillColor=none;strokeColor=#666666;fontColor=#333333;labelBackgroundColor=none;align=left;verticalAlign=bottom;labelBorderColor=none;spacingTop=0;spacing=10;dashPattern=8 4;metaEdit=1;rotatable=0;perimeter=rectanglePerimeter;noLabel=0;labelPadding=0;allowArrows=0;connectable=0;expand=0;recursiveResize=0;editable=1;pointerEvents=0;absoluteArcSize=1;points=[[0.25,0,0],[0.5,0,0],[0.75,0,0],[1,0.25,0],[1,0.5,0],[1,0.75,0],[0.75,1,0],[0.5,1,0],[0.25,1,0],[0,0.75,0],[0,0.5,0],[0,0.25,0]];" parent="OxCkQ5Rw8pex38WkrfER-1" vertex="1">
            <mxGeometry x="120" y="120" width="440" height="800" as="geometry" />
          </mxCell>
        </object>
        <mxCell id="OxCkQ5Rw8pex38WkrfER-11" value="Chủ tạp hoá" style="shape=umlActor;verticalLabelPosition=bottom;verticalAlign=top;html=1;fillColor=#FFFF33;" parent="OxCkQ5Rw8pex38WkrfER-1" vertex="1">
          <mxGeometry x="40" y="560" width="30" height="60" as="geometry" />
        </mxCell>
        <mxCell id="OxCkQ5Rw8pex38WkrfER-12" value="2.1 Tạo &lt;br&gt;đơn hàng" style="ellipse;whiteSpace=wrap;html=1;fillColor=#dae8fc;strokeColor=#6c8ebf;" parent="OxCkQ5Rw8pex38WkrfER-1" vertex="1">
          <mxGeometry x="270" y="210" width="80" height="50" as="geometry" />
        </mxCell>
        <mxCell id="OxCkQ5Rw8pex38WkrfER-13" value="2.2 Sửa &lt;br&gt;đơn hàng" style="ellipse;whiteSpace=wrap;html=1;fillColor=#dae8fc;strokeColor=#6c8ebf;" parent="OxCkQ5Rw8pex38WkrfER-1" vertex="1">
          <mxGeometry x="360" y="230" width="80" height="50" as="geometry" />
        </mxCell>
        <mxCell id="OxCkQ5Rw8pex38WkrfER-14" value="&amp;lt;&amp;lt;extend&amp;gt;&amp;gt;" style="html=1;verticalAlign=bottom;labelBackgroundColor=none;endArrow=open;endFill=0;dashed=1;rounded=0;" parent="OxCkQ5Rw8pex38WkrfER-1" source="OxCkQ5Rw8pex38WkrfER-12" edge="1">
          <mxGeometry x="-0.0022" y="3" width="160" relative="1" as="geometry">
            <mxPoint x="262.33000000000004" y="434" as="sourcePoint" />
            <mxPoint x="260" y="310" as="targetPoint" />
            <mxPoint as="offset" />
          </mxGeometry>
        </mxCell>
        <mxCell id="OxCkQ5Rw8pex38WkrfER-15" value="&amp;lt;&amp;lt;extend&amp;gt;&amp;gt;" style="html=1;verticalAlign=bottom;labelBackgroundColor=none;endArrow=open;endFill=0;dashed=1;rounded=0;exitX=0.057;exitY=0.709;exitDx=0;exitDy=0;fillColor=#FFFFCC;exitPerimeter=0;" parent="OxCkQ5Rw8pex38WkrfER-1" source="OxCkQ5Rw8pex38WkrfER-13" target="OxCkQ5Rw8pex38WkrfER-4" edge="1">
          <mxGeometry x="-0.1866" y="5" width="160" relative="1" as="geometry">
            <mxPoint x="299" y="330" as="sourcePoint" />
            <mxPoint x="324" y="390" as="targetPoint" />
            <mxPoint as="offset" />
          </mxGeometry>
        </mxCell>
        <mxCell id="OxCkQ5Rw8pex38WkrfER-24" value="2.3 Xoá&lt;br&gt;đơn hàng" style="ellipse;whiteSpace=wrap;html=1;fillColor=#dae8fc;strokeColor=#6c8ebf;" parent="OxCkQ5Rw8pex38WkrfER-1" vertex="1">
          <mxGeometry x="390" y="290" width="80" height="50" as="geometry" />
        </mxCell>
        <mxCell id="OxCkQ5Rw8pex38WkrfER-26" value="&amp;lt;&amp;lt;extend&amp;gt;&amp;gt;" style="html=1;verticalAlign=bottom;labelBackgroundColor=none;endArrow=open;endFill=0;dashed=1;rounded=0;exitX=0;exitY=0.5;exitDx=0;exitDy=0;entryX=1;entryY=0.5;entryDx=0;entryDy=0;fillColor=#FFFFCC;" parent="OxCkQ5Rw8pex38WkrfER-1" source="OxCkQ5Rw8pex38WkrfER-24" target="OxCkQ5Rw8pex38WkrfER-4" edge="1">
          <mxGeometry x="0.0296" y="2" width="160" relative="1" as="geometry">
            <mxPoint x="294" y="380" as="sourcePoint" />
            <mxPoint x="314" y="305" as="targetPoint" />
            <mxPoint as="offset" />
          </mxGeometry>
        </mxCell>
        <mxCell id="OxCkQ5Rw8pex38WkrfER-28" value="3.5 Gửi tin&amp;nbsp;&lt;div&gt;&lt;span style=&quot;background-color: initial;&quot;&gt;nhắn nhắc&lt;/span&gt;&lt;span style=&quot;background-color: initial;&quot;&gt;&amp;nbsp;nợ&lt;/span&gt;&lt;/div&gt;" style="ellipse;whiteSpace=wrap;html=1;fillColor=#dae8fc;strokeColor=#6c8ebf;" parent="OxCkQ5Rw8pex38WkrfER-1" vertex="1">
          <mxGeometry x="140" y="520" width="110" height="50" as="geometry" />
        </mxCell>
        <mxCell id="OxCkQ5Rw8pex38WkrfER-29" value="&amp;lt;&amp;lt;extend&amp;gt;&amp;gt;" style="html=1;verticalAlign=bottom;labelBackgroundColor=none;endArrow=open;endFill=0;dashed=1;rounded=0;" parent="OxCkQ5Rw8pex38WkrfER-1" source="OxCkQ5Rw8pex38WkrfER-28" target="OxCkQ5Rw8pex38WkrfER-2" edge="1">
          <mxGeometry x="-0.1829" y="6" width="160" relative="1" as="geometry">
            <mxPoint x="273" y="445" as="sourcePoint" />
            <mxPoint x="252" y="515" as="targetPoint" />
            <mxPoint as="offset" />
          </mxGeometry>
        </mxCell>
        <mxCell id="OxCkQ5Rw8pex38WkrfER-34" value="&amp;lt;&amp;lt;extend&amp;gt;&amp;gt;" style="html=1;verticalAlign=bottom;labelBackgroundColor=none;endArrow=open;endFill=0;dashed=1;rounded=0;" parent="OxCkQ5Rw8pex38WkrfER-1" source="OxCkQ5Rw8pex38WkrfER-6" edge="1">
          <mxGeometry width="160" relative="1" as="geometry">
            <mxPoint x="319.53" y="534.9999999999999" as="sourcePoint" />
            <mxPoint x="320" y="440" as="targetPoint" />
          </mxGeometry>
        </mxCell>
        <mxCell id="OxCkQ5Rw8pex38WkrfER-36" value="4. Quản lý khách nợ" style="ellipse;whiteSpace=wrap;html=1;fillColor=#99CCFF;strokeColor=#000000;" parent="OxCkQ5Rw8pex38WkrfER-1" vertex="1">
          <mxGeometry x="200" y="600" width="120" height="60" as="geometry" />
        </mxCell>
        <mxCell id="OxCkQ5Rw8pex38WkrfER-37" value="3.1 Tạo&amp;nbsp;&lt;div&gt;đơn nợ&lt;/div&gt;" style="ellipse;whiteSpace=wrap;html=1;fillColor=#dae8fc;strokeColor=#6c8ebf;" parent="OxCkQ5Rw8pex38WkrfER-1" vertex="1">
          <mxGeometry x="430" y="360" width="80" height="50" as="geometry" />
        </mxCell>
        <mxCell id="OxCkQ5Rw8pex38WkrfER-38" value="4.1 Tạo&amp;nbsp;&lt;div&gt;khách nợ&amp;nbsp;&lt;/div&gt;" style="ellipse;whiteSpace=wrap;html=1;fillColor=#dae8fc;strokeColor=#6c8ebf;" parent="OxCkQ5Rw8pex38WkrfER-1" vertex="1">
          <mxGeometry x="393" y="550" width="80" height="50" as="geometry" />
        </mxCell>
        <mxCell id="OxCkQ5Rw8pex38WkrfER-39" value="&amp;lt;&amp;lt;extend&amp;gt;&amp;gt;" style="html=1;verticalAlign=bottom;labelBackgroundColor=none;endArrow=open;endFill=0;dashed=1;rounded=0;exitX=0;exitY=0.5;exitDx=0;exitDy=0;entryX=1;entryY=0.5;entryDx=0;entryDy=0;" parent="OxCkQ5Rw8pex38WkrfER-1" source="OxCkQ5Rw8pex38WkrfER-40" target="OxCkQ5Rw8pex38WkrfER-36" edge="1">
          <mxGeometry width="160" relative="1" as="geometry">
            <mxPoint x="413.73912634861034" y="654.9998941588232" as="sourcePoint" />
            <mxPoint x="320" y="640" as="targetPoint" />
            <mxPoint as="offset" />
          </mxGeometry>
        </mxCell>
        <mxCell id="OxCkQ5Rw8pex38WkrfER-40" value="4.2 Sửa&amp;nbsp;&lt;div&gt;&lt;div&gt;khách nợ&lt;/div&gt;&lt;/div&gt;" style="ellipse;whiteSpace=wrap;html=1;fillColor=#dae8fc;strokeColor=#6c8ebf;" parent="OxCkQ5Rw8pex38WkrfER-1" vertex="1">
          <mxGeometry x="400" y="605" width="80" height="50" as="geometry" />
        </mxCell>
        <mxCell id="OxCkQ5Rw8pex38WkrfER-42" value="&amp;lt;&amp;lt;extend&amp;gt;&amp;gt;" style="html=1;verticalAlign=bottom;labelBackgroundColor=none;endArrow=open;endFill=0;dashed=1;rounded=0;exitX=0;exitY=0.5;exitDx=0;exitDy=0;entryX=1;entryY=0;entryDx=0;entryDy=0;" parent="OxCkQ5Rw8pex38WkrfER-1" source="OxCkQ5Rw8pex38WkrfER-38" target="OxCkQ5Rw8pex38WkrfER-36" edge="1">
          <mxGeometry x="0.0143" y="8" width="160" relative="1" as="geometry">
            <mxPoint x="256" y="575" as="sourcePoint" />
            <mxPoint x="416" y="575" as="targetPoint" />
            <mxPoint as="offset" />
          </mxGeometry>
        </mxCell>
        <mxCell id="HwAV4m9xRXshIDozd-MP-0" value="6. Xem thống kê&amp;nbsp;&lt;div&gt;doanh thu&lt;/div&gt;" style="ellipse;whiteSpace=wrap;html=1;fillColor=#99CCFF;strokeColor=#000000;" parent="OxCkQ5Rw8pex38WkrfER-1" vertex="1">
          <mxGeometry x="200" y="770" width="120" height="60" as="geometry" />
        </mxCell>
        <mxCell id="HwAV4m9xRXshIDozd-MP-7" value="5. Quản lý hàng hoá" style="ellipse;whiteSpace=wrap;html=1;fillColor=#99CCFF;strokeColor=#000000;" parent="OxCkQ5Rw8pex38WkrfER-1" vertex="1">
          <mxGeometry x="200" y="680" width="120" height="60" as="geometry" />
        </mxCell>
        <mxCell id="HwAV4m9xRXshIDozd-MP-8" value="5.1 Tạo&lt;div&gt;sản phẩm&lt;/div&gt;" style="ellipse;whiteSpace=wrap;html=1;fillColor=#dae8fc;strokeColor=#6c8ebf;" parent="OxCkQ5Rw8pex38WkrfER-1" vertex="1">
          <mxGeometry x="400" y="660" width="80" height="50" as="geometry" />
        </mxCell>
        <mxCell id="HwAV4m9xRXshIDozd-MP-9" value="5.2 Sửa&lt;div&gt;sản phẩm&lt;/div&gt;" style="ellipse;whiteSpace=wrap;html=1;fillColor=#dae8fc;strokeColor=#6c8ebf;" parent="OxCkQ5Rw8pex38WkrfER-1" vertex="1">
          <mxGeometry x="390" y="720" width="86" height="55" as="geometry" />
        </mxCell>
        <mxCell id="HwAV4m9xRXshIDozd-MP-10" value="5.3 Xoá&amp;nbsp;&lt;div&gt;sản phẩm&lt;/div&gt;" style="ellipse;whiteSpace=wrap;html=1;fillColor=#dae8fc;strokeColor=#6c8ebf;" parent="OxCkQ5Rw8pex38WkrfER-1" vertex="1">
          <mxGeometry x="350" y="790" width="80" height="50" as="geometry" />
        </mxCell>
        <mxCell id="HwAV4m9xRXshIDozd-MP-11" value="&amp;lt;&amp;lt;extend&amp;gt;&amp;gt;" style="html=1;verticalAlign=bottom;labelBackgroundColor=none;endArrow=open;endFill=0;dashed=1;rounded=0;exitX=0.085;exitY=0.245;exitDx=0;exitDy=0;exitPerimeter=0;" parent="OxCkQ5Rw8pex38WkrfER-1" source="HwAV4m9xRXshIDozd-MP-9" edge="1">
          <mxGeometry x="-0.1336" y="4" width="160" relative="1" as="geometry">
            <mxPoint x="559" y="574.5" as="sourcePoint" />
            <mxPoint x="320" y="710" as="targetPoint" />
            <mxPoint as="offset" />
          </mxGeometry>
        </mxCell>
        <mxCell id="HwAV4m9xRXshIDozd-MP-12" value="&amp;lt;&amp;lt;extend&amp;gt;&amp;gt;" style="html=1;verticalAlign=bottom;labelBackgroundColor=none;endArrow=open;endFill=0;dashed=1;rounded=0;entryX=1;entryY=0;entryDx=0;entryDy=0;" parent="OxCkQ5Rw8pex38WkrfER-1" source="HwAV4m9xRXshIDozd-MP-8" target="HwAV4m9xRXshIDozd-MP-7" edge="1">
          <mxGeometry x="0.0439" y="3" width="160" relative="1" as="geometry">
            <mxPoint x="569" y="584.5" as="sourcePoint" />
            <mxPoint x="490" y="585.5" as="targetPoint" />
            <mxPoint as="offset" />
          </mxGeometry>
        </mxCell>
        <mxCell id="HwAV4m9xRXshIDozd-MP-13" value="&amp;lt;&amp;lt;extend&amp;gt;&amp;gt;" style="html=1;verticalAlign=bottom;labelBackgroundColor=none;endArrow=open;endFill=0;dashed=1;rounded=0;entryX=1;entryY=1;entryDx=0;entryDy=0;" parent="OxCkQ5Rw8pex38WkrfER-1" source="HwAV4m9xRXshIDozd-MP-10" target="HwAV4m9xRXshIDozd-MP-7" edge="1">
          <mxGeometry x="-0.0098" y="10" width="160" relative="1" as="geometry">
            <mxPoint x="569" y="584.5" as="sourcePoint" />
            <mxPoint x="490" y="585.5" as="targetPoint" />
            <mxPoint as="offset" />
          </mxGeometry>
        </mxCell>
        <mxCell id="uf6q2WA9cGWcIPJuY0Zr-0" value="" style="endArrow=none;html=1;rounded=0;exitX=1;exitY=0.3333333333333333;exitDx=0;exitDy=0;exitPerimeter=0;entryX=0;entryY=0.5;entryDx=0;entryDy=0;" parent="OxCkQ5Rw8pex38WkrfER-1" source="OxCkQ5Rw8pex38WkrfER-11" target="HwAV4m9xRXshIDozd-MP-7" edge="1">
          <mxGeometry width="50" height="50" relative="1" as="geometry">
            <mxPoint x="200" y="430" as="sourcePoint" />
            <mxPoint x="250" y="380" as="targetPoint" />
          </mxGeometry>
        </mxCell>
        <mxCell id="uf6q2WA9cGWcIPJuY0Zr-3" value="" style="endArrow=none;html=1;rounded=0;entryX=0;entryY=0.5;entryDx=0;entryDy=0;" parent="OxCkQ5Rw8pex38WkrfER-1" target="HwAV4m9xRXshIDozd-MP-0" edge="1">
          <mxGeometry width="50" height="50" relative="1" as="geometry">
            <mxPoint x="70" y="580" as="sourcePoint" />
            <mxPoint x="170" y="1080" as="targetPoint" />
          </mxGeometry>
        </mxCell>
        <mxCell id="uf6q2WA9cGWcIPJuY0Zr-4" value="" style="endArrow=none;html=1;rounded=0;entryX=0.245;entryY=0.933;entryDx=0;entryDy=0;entryPerimeter=0;" parent="OxCkQ5Rw8pex38WkrfER-1" target="OxCkQ5Rw8pex38WkrfER-36" edge="1">
          <mxGeometry width="50" height="50" relative="1" as="geometry">
            <mxPoint x="70" y="580" as="sourcePoint" />
            <mxPoint x="304" y="585" as="targetPoint" />
          </mxGeometry>
        </mxCell>
        <mxCell id="uf6q2WA9cGWcIPJuY0Zr-8" value="" style="endArrow=none;html=1;rounded=0;entryX=0;entryY=0.5;entryDx=0;entryDy=0;exitX=1;exitY=0.3333333333333333;exitDx=0;exitDy=0;exitPerimeter=0;" parent="OxCkQ5Rw8pex38WkrfER-1" source="OxCkQ5Rw8pex38WkrfER-11" target="OxCkQ5Rw8pex38WkrfER-4" edge="1">
          <mxGeometry width="50" height="50" relative="1" as="geometry">
            <mxPoint x="80" y="590" as="sourcePoint" />
            <mxPoint x="262" y="301" as="targetPoint" />
          </mxGeometry>
        </mxCell>
        <mxCell id="uf6q2WA9cGWcIPJuY0Zr-9" value="" style="endArrow=none;html=1;rounded=0;entryX=0;entryY=0.5;entryDx=0;entryDy=0;exitX=1;exitY=0.3333333333333333;exitDx=0;exitDy=0;exitPerimeter=0;" parent="OxCkQ5Rw8pex38WkrfER-1" source="OxCkQ5Rw8pex38WkrfER-11" target="OxCkQ5Rw8pex38WkrfER-5" edge="1">
          <mxGeometry width="50" height="50" relative="1" as="geometry">
            <mxPoint x="80" y="590" as="sourcePoint" />
            <mxPoint x="201" y="221" as="targetPoint" />
          </mxGeometry>
        </mxCell>
        <mxCell id="RJaRfeDCFDKxlXlS0yCI-0" value="3.4 Xem&lt;br&gt;đơn nợ" style="ellipse;whiteSpace=wrap;html=1;fillColor=#dae8fc;strokeColor=#6c8ebf;" parent="OxCkQ5Rw8pex38WkrfER-1" vertex="1">
          <mxGeometry x="270" y="520" width="80" height="50" as="geometry" />
        </mxCell>
        <mxCell id="RJaRfeDCFDKxlXlS0yCI-1" value="&amp;lt;&amp;lt;extend&amp;gt;&amp;gt;" style="html=1;verticalAlign=bottom;labelBackgroundColor=none;endArrow=open;endFill=0;dashed=1;rounded=0;entryX=0.822;entryY=0.877;entryDx=0;entryDy=0;entryPerimeter=0;" parent="OxCkQ5Rw8pex38WkrfER-1" source="RJaRfeDCFDKxlXlS0yCI-0" target="OxCkQ5Rw8pex38WkrfER-2" edge="1">
          <mxGeometry x="-0.1692" y="9" width="160" relative="1" as="geometry">
            <mxPoint x="367" y="445" as="sourcePoint" />
            <mxPoint x="254" y="430" as="targetPoint" />
            <mxPoint as="offset" />
          </mxGeometry>
        </mxCell>
      </root>
    </mxGraphModel>
  </diagram>
</mxfile>
